<?xml version="1.0" encoding="utf-8"?>
<!-- Generator: Adobe Illustrator 16.0.3, SVG Export Plug-In . SVG Version: 6.00 Build 0)  -->
<!DOCTYPE svg PUBLIC "-//W3C//DTD SVG 1.1//EN" "http://www.w3.org/Graphics/SVG/1.1/DTD/svg11.dtd">
<svg version="1.1" xmlns="http://www.w3.org/2000/svg" xmlns:xlink="http://www.w3.org/1999/xlink" x="0px" y="0px" width="20px"
	 height="20px" viewBox="0 0 20 20" enable-background="new 0 0 20 20" xml:space="preserve">
<g id="Camera" display="none">
	<path display="inline" fill="#010101" d="M17,5l-2-2h-4L9,5H6V4H2v1H0v12h20V5H17z M6,8H2V6h4L6,8z M13,16c-2.761,0-5-2.239-5-5
		s2.239-5,5-5c2.761,0,5,2.239,5,5S15.761,16,13,16z"/>
	<path display="inline" fill="#010101" d="M13,7c-2.209,0-4,1.791-4,4s1.791,4,4,4s4-1.791,4-4S15.209,7,13,7z M13,13
		c-1.104,0-2-0.896-2-2s0.896-2,2-2s2,0.896,2,2S14.104,13,13,13z"/>
</g>
<g id="Printer" display="none">
	<g display="inline">
		<path fill="#010101" d="M17,7V0H3v7H0v13h20V7H17z M5,2h10v7H5V2z M3,12h2v2H3V12z M17,18H3v-2h14V18z"/>
	</g>
</g>
<g id="PDF" display="none">
	<g display="inline">
		<rect x="6" y="12" width="1" height="1"/>
		<rect x="10" y="12" width="1" height="3"/>
		<path d="M17,3h-0.958V2h-1V1h-1V0H3v20h14V3z M10,2h1v4h4v1h-5V2z M8,14H6v2H5v-5h3V14z M12,15h-1v1H9v-5h2v1h1V15z M15,12h-1v1h1
			v1h-1v2h-1v-5h2V12z"/>
	</g>
</g>
<g id="Comment" display="none">
	<path display="inline" d="M0,3v12h5v1v1v1v1h1v-1h1v-1h1v-1h1v-1h11V3H0z M5,9V8h1h1v1v1H6H5V9z M11,9v1h-1H9V9V8h1h1V9z M15,9v1
		h-1h-1V9V8h1h1V9z"/>
</g>
<g id="Mail" display="none">
	<path display="inline" d="M0,3v14h20V3H0z M18,6h-1v1h-1v1h-1v1h-1v1v1h1v1h1v1h1v1h1v1h-1v-1h-1v-1h-1v-1h-1v-1h-1h-1v1h-1v1h-1H9
		v-1H8v-1H7H6v1H5v1H4v1H3v1H2v-1h1v-1h1v-1h1v-1h1v-1V9H5V8H4V7H3V6H2V5h1v1h1v1h1v1h1v1h1v1h1v1h1h1h1h1v-1h1V9h1V8h1V7h1V6h1V5h1
		V6z"/>
</g>
<g id="Information" display="none">
	<rect x="8.009" display="inline" width="4" height="4"/>
	<rect x="8.009" y="6" display="inline" width="4" height="14"/>
</g>
<g id="Create_Dossier" display="none">
	<rect x="9" display="inline" width="2" height="20"/>
	<rect y="9" display="inline" width="20" height="2"/>
</g>
<g id="Facebook" display="none">
	<g display="inline">
		<path fill-rule="evenodd" clip-rule="evenodd" fill="#0D0D0D" d="M17,5c0.457,0,3,0,3,0V1c0,0-2.583,0-4,0c-2.294,0-4,1.728-4,4
			c0,0.708,0,3,0,3H9v4h3v8h4v-8h4V8h-4c0,0,0-1.454,0-2C16,5.454,16.439,5,17,5z"/>
	</g>
</g>
<g id="Reddit" display="none">
	<g display="inline">
		<path fill-rule="evenodd" clip-rule="evenodd" d="M12.643,14.188c-0.997,1.04-3.942,1.365-5.346,0.044
			c-0.574-0.541-1.264,0.264-0.823,0.748c1.397,1.534,5.725,1.654,7.075,0.037C13.963,14.521,13.127,13.683,12.643,14.188z"/>
		<circle fill-rule="evenodd" clip-rule="evenodd" cx="13.149" cy="11.219" r="1.173"/>
		<circle fill-rule="evenodd" clip-rule="evenodd" cx="7" cy="11.173" r="1.169"/>
		<path fill-rule="evenodd" clip-rule="evenodd" d="M17.478,7.056c-0.677,0.003-1.25,0.261-1.821,0.775
			C14.288,7.016,12.913,6.106,11,6.011c0.008-0.955-0.148-3.034,2-3c0.793,0.013,1.459-0.009,1.765,0.17
			c-0.003,0.044-0.007,0.087-0.007,0.132c0,1.24,1.005,2.246,2.244,2.246s2.3-1.006,2.3-2.246c0-1.24-1.061-2.302-2.3-2.302
			c-0.847,0-1.527,0.441-1.909,1.134C14.521,2.011,13.74,1.994,13,2.011c-2.85,0.068-3.225,1.585-3,4
			C7.991,6.073,5.863,6.673,4.352,7.834c-0.571-0.517-1.09-0.719-1.768-0.721C1.736,7.109,1.151,7.247,0.604,7.801
			C0.043,8.369-0.038,8.822,0.013,9.92c0.041,0.89,0.929,1.761,1.374,2.01c-0.037,0.226-0.058,0.23-0.058,0.462
			c0,2.641,2.468,6.316,6.551,6.507c1.043,0.048,0.984,0.106,2.127,0.106c1.186,0,2.102,0.049,3.038-0.179
			c3.734-0.912,5.555-3.779,5.555-6.435c0-0.234-0.021-0.292-0.059-0.52c0.447-0.252,1.413-1.067,1.454-1.953
			c0.05-1.099-0.195-1.81-0.591-2.176C19.005,7.379,18.326,7.053,17.478,7.056z M17.025,2.022c0.699,0,1.266,0.547,1.266,1.222
			c0,0.674-0.566,1.221-1.266,1.221c-0.7,0-1.268-0.547-1.268-1.221C15.758,2.569,16.326,2.022,17.025,2.022z M1.041,9.394
			c0.062-0.975,1.056-1.301,1.402-1.325c0.371-0.025,0.757,0.149,1.068,0.338c-0.847,0.662-1.425,1.276-1.787,2.149
			C1.416,10.324,0.997,10.081,1.041,9.394z M13.283,17.583C12.302,17.933,11.153,18,10,18c-0.909,0-1.576,0.018-2.369-0.207
			c-2.891-0.819-5.002-2.549-5.002-5.394c0-2.784,3.764-5.041,7.426-5.041c3.607,0,7.342,2.538,7.342,5.041
			C17.397,14.99,15.896,16.651,13.283,17.583z M18.345,10.617c-0.361-0.873-0.944-1.552-1.791-2.213
			c0.311-0.186,0.667-0.389,1.037-0.363c0.346,0.023,1.34,0.35,1.402,1.325C19.037,10.049,18.653,10.384,18.345,10.617z"/>
	</g>
</g>
<g id="Twitter" display="none">
	<path display="inline" d="M0,13.068c0,0,2.625,3.977,7.966,3.886c3.443-0.103,8.33-1.625,9.637-6.648c0,0,1.403,0.239,2.397-0.852
		c-1.358,0.188-2.261-0.239-2.261-0.239s1.778-0.051,2.17-1.102c-1.051,0.455-2.352,0.068-2.352,0.068s-0.614-3.761-4.353-3.897
		c0,0,1.999-0.407,1.686-0.868c-0.25-0.335-1.641,0.289-1.641,0.289S14.025,3.363,14.007,3c-0.784,0.091-1.503,0.67-1.503,0.67
		s0.22-0.352,0.223-0.5C10.86,4.208,9.591,8.074,9.591,8.074S9.118,7.549,8.33,6.981C6.428,5.86,2.92,4.534,2.92,4.534
		S2.686,5.981,4.557,7.042c-0.766,0.061-1.152,0.16-1.152,0.16s0,1.537,2.231,2.037C4.602,9.277,4.261,9.792,4.261,9.792
		s0.583,1.372,2.417,1.258c-1.493,0.772-0.523,1.826,0.697,1.712C3.451,16.276,0,13.068,0,13.068z"/>
</g>
<g id="g_x2B_" display="none">
	<polygon display="inline" points="16,2 16,5 13,5 13,6 16,6 16,9 17,9 17,6 20,6 20,5 17,5 17,2 	"/>
	<path display="inline" d="M1.888,14.579c0-1.418,1.8-2.598,3.809-2.577c0.468,0.004,0.905,0.076,1.301,0.197
		c1.091,0.718,1.873,1.124,2.093,1.941c0.042,0.167,0.064,0.336,0.064,0.511c0,1.446-0.985,2.577-3.808,2.577
		C3.339,17.229,1.888,16.024,1.888,14.579 M5.875,8.747c-1.348-0.038-2.63-1.428-2.862-3.104c-0.232-1.677,0.582-2.782,1.93-2.744
		c1.347,0.038,2.719,1.205,2.951,2.882c0.23,1.653-0.646,2.967-1.963,2.967C5.913,8.749,5.894,8.748,5.875,8.747 M5.687,2.02
		c-2.584,0-4.555,2.156-4.555,3.633c0,1.992,1.6,3.6,3.986,3.6c0.166,0,0.327-0.003,0.485-0.014
		C5.448,9.52,5.338,9.835,5.338,10.164c0,0.553,0.314,1.002,0.712,1.369c-0.3,0-0.59,0.008-0.907,0.008
		C2.236,11.541,0,13.293,0,15.11c0,1.79,2.452,2.91,5.357,2.91c3.313,0,5.143-1.78,5.143-3.57c0-1.435-0.447-2.294-1.83-3.22
		c-0.473-0.318-1.376-1.089-1.376-1.542c0-0.531,0.159-0.793,1.004-1.417c0.865-0.64,1.478-1.541,1.478-2.588
		C9.776,4.438,9.1,3.4,8,3h1.659l1.26-0.98H5.687z"/>
</g>
<g id="List">
	<rect x="7" y="15" width="10" height="2"/>
	<rect x="3" y="15" width="2" height="2"/>
	<rect x="7" y="9" width="10" height="2"/>
	<rect x="3" y="9" width="2" height="2"/>
	<rect x="7" y="3" width="10" height="2"/>
	<rect x="3" y="3" width="2" height="2"/>
</g>
<g id="Lock" display="none">
	<path display="inline" d="M15,7V5.176V4.833C15,2.164,12.761,0,10,0h0h0C9.995,0,9.99,0.001,9.986,0.001
		C7.231,0.009,5,2.169,5,4.833v0.343V7H3v13h14V7H15z M8,12c0-1.104,0.896-2,2-2s2,0.896,2,2c0,0.738-0.405,1.376-1,1.723V17H9
		v-3.277C8.405,13.376,8,12.738,8,12z M7,7V5.176C7,3.425,8.346,2,10,2c1.654,0,3,1.425,3,3.176V7H7z"/>
</g>
<g id="Transgender" display="none">
	<path display="inline" fill-rule="evenodd" clip-rule="evenodd" fill="#010101" d="M17.579,14.413
		c-1.208-1.579-2.767-2.396-5.4-2.658c-0.475-0.095-0.833-0.517-0.833-1.017c0-0.366,1.176-1.462,1.167-1.471
		c1.212-1.253,1.863-3.291,1.863-4.858C14.375,1.975,12.417,0,10,0S5.625,1.975,5.625,4.408c0,1.576,0.634,3.625,1.858,4.879
		c0,0,1.17,1.084,1.17,1.451c0,0.53-0.399,0.97-0.917,1.034c-2.579,0.271-4.12,1.083-5.316,2.642C2.075,14.862,2.012,15.517,2,16
		c0.004,0.125,0,4,0,4h1.541h12.917H18c0,0-0.002-3.875,0.002-4C17.99,15.517,17.925,14.862,17.579,14.413z"/>
</g>
<g id="Male" display="none">
	<path display="inline" fill-rule="evenodd" clip-rule="evenodd" fill="#010101" d="M17.579,14.414
		c-0.877-1.143-1.934-1.884-3.448-2.305l-1.424,4.973c0,0-0.373,0.837-0.832,0.837s-0.832-0.378-0.832-0.837v-3.957
		c0-0.576-0.468-1.043-1.043-1.043s-1.043,0.468-1.043,1.043v3.957c0,0.458-0.373,0.837-0.832,0.837
		c-0.459,0-0.832-0.837-0.832-0.837L5.87,12.109c-1.515,0.422-2.571,1.162-3.448,2.305C2.072,14.863,2.011,15.432,2,15.918
		c0.001,0.126,0,0.272,0,0.418v0.832V20h1.543h12.913H18v-2.832v-0.832c0-0.146-0.001-0.292,0-0.418
		C17.989,15.432,17.928,14.863,17.579,14.414z M5.625,4.406c0,2.438,1.515,6.013,4.375,6.013c2.811,0,4.375-3.574,4.375-6.013
		C14.375,1.974,12.42,0,10,0S5.625,1.974,5.625,4.406z"/>
</g>
<g id="Female" display="none">
	<path display="inline" fill-rule="evenodd" clip-rule="evenodd" fill="#010101" d="M17.579,14.414
		c-0.488-0.636-1.035-1.151-1.689-1.553c-1.008,2.246-3.271,3.808-5.89,3.808s-4.881-1.563-5.89-3.808
		c-0.652,0.402-1.2,0.917-1.688,1.553C2.072,14.863,2.011,15.432,2,15.918C2.001,16.044,2,20,2,20h1.543h12.913H18
		c0,0-0.001-3.956,0-4.082C17.989,15.432,17.928,14.863,17.579,14.414z M7.735,11.769c-0.351,0.038-0.683,0.086-0.998,0.137
		c-0.362,0.095-0.636,0.42-0.636,0.817c0,0.159,0.042,0.305,0.12,0.433C7.1,14.278,8.467,15,10,15c1.495,0,2.831-0.684,3.71-1.756
		c0.117-0.139,0.179-0.323,0.179-0.521c0-0.41-0.294-0.751-0.685-0.82c-0.323-0.059-0.665-0.108-1.035-0.146
		c-0.469-0.088-0.822-0.426-0.822-0.925c0-0.459,0.341-0.804,0.8-0.862c0.042-0.009,0.155-0.017,0.155-0.017
		c2.239-0.157,3.763-0.608,4.768-1.477c0.137-0.146,0.223-0.342,0.223-0.558c0-0.437-0.331-0.79-0.751-0.83
		c-1.239-0.252-2.167-1.277-2.167-2.507V4.406C14.375,1.974,12.42,0,10,0S5.625,1.974,5.625,4.406v0.176
		c0,1.23-0.928,2.255-2.167,2.507c-0.42,0.04-0.751,0.393-0.751,0.83c0,0.216,0.086,0.411,0.223,0.558
		C3.937,9.344,5.46,9.795,7.707,9.953c0.067,0,0.134,0.007,0.186,0.017c0.468,0.062,0.76,0.4,0.76,0.862
		C8.653,11.367,8.253,11.708,7.735,11.769z"/>
</g>
<g id="Notifications" display="none">
	<g display="inline">
		<path fill-rule="evenodd" clip-rule="evenodd" fill="#010101" d="M9,18v-1h4v-1H9v-1h4c0-0.348,0-1,0-1H7v3
			c0,0.583-0.092,0.784,0.296,1.162l1.226,1.226c0.816,0.816,2.141,0.816,2.958,0L13,18H9z"/>
		<path fill-rule="evenodd" clip-rule="evenodd" fill="#010101" d="M14.013,13C15,12,17,9.078,17,6.5C17,2.618,14.297,0,10,0
			S3,2.618,3,6.5C3,9.383,5,12,5.962,13H14.013z M11.458,2.257c0.772,0,1.711,0.51,2.499,1.232c0.802,0.741,1.39,1.729,1.39,2.379
			c0,0.496-0.438,0.902-0.972,0.902c-0.476,0-0.875-0.32-0.958-0.744c-0.243-0.907-1.078-1.738-2.128-1.964
			c-0.457-0.077-0.802-0.447-0.802-0.889C10.486,2.677,10.924,2.257,11.458,2.257z"/>
	</g>
</g>
</svg>
